PathFileType	4	(X/Y/Z)	Patient4_TMGait_0pt4_02_right_21.trc.trc
DataRate	CameraRate	NumFrames	NumMarkers	Units	OrigDataRate	OrigDataStartFrame	OrigNumFrames
73.298429319372	73.298429319372	6	33	mm	73.298429319372	1	       141
Frame#	Time	Sacral			L.Shoulder			Chest			R.Shoulder			Neck			R.ASIS			L.ASIS			R.Thigh.Superior			R.Thigh.Lateral			R.Thigh.Inferior			R.Patella			L.Thigh.Superior			L.Thigh.Lateral			L.Thigh.Inferior			L.Patella			L.Shank.Superior			L.Shank.Lateral			L.Shank.Inferior			R.Shank.Superior			R.Shank.Lateral			R.Shank.Inferior			R.Heel			R.Midfoot.Superior			R.Midfoot.Lateral			R.Toe			L.Heel			L.Midfoot.Lateral			L.Midfoot.Superior			L.Toe			L.Elbow			L.Wrist			R.Elbow			R.Wrist			
		X1	Y1	Z1	X2	Y2	Z2	X3	Y3	Z3	X4	Y4	Z4	X5	Y5	Z5	X6	Y6	Z6	X7	Y7	Z7	X8	Y8	Z8	X9	Y9	Z9	X10	Y10	Z10	X11	Y11	Z11	X12	Y12	Z12	X13	Y13	Z13	X14	Y14	Z14	X15	Y15	Z15	X16	Y16	Z16	X17	Y17	Z17	X18	Y18	Z18	X19	Y19	Z19	X20	Y20	Z20	X21	Y21	Z21	X22	Y22	Z22	X23	Y23	Z23	X24	Y24	Z24	X25	Y25	Z25	X26	Y26	Z26	X27	Y27	Z27	X28	Y28	Z28	X29	Y29	Z29	X30	Y30	Z30	X31	Y31	Z31	X32	Y32	Z32	X33	Y33	Z33	

1	27.490000000000	884.094122488345	1000.746237370465	426.975640128805	1044.196226209013	1431.633567607385	229.250850488088	1146.184525015253	1377.226818767777	395.360390193593	1054.415093757628	1451.610789181003	564.938079226749	1021.258290779251	1499.065704990982	383.112833507470	1115.225312627483	953.993022289508	545.709806731457	1098.359768217084	964.211871652392	272.313781268194	1197.978390885522	777.135817148077	527.705009769149	1152.660654258081	657.183951549285	603.565062605381	1247.012826349450	616.112951534867	532.456066399142	1263.879801633760	505.772566650699	558.061689061796	1152.987973358680	753.936065349558	296.904878497559	1061.920776848185	636.517839120247	242.659997228386	1150.400125935789	560.034819943056	300.914416390686	1151.091598089401	490.725071595653	311.357331462201	1122.735515087110	417.679223843132	306.553527979660	1028.612030014105	303.775155310225	260.374762742997	1081.871979920447	193.566218479036	333.201444194954	1191.332701091754	428.058365940314	564.466480793016	1070.876562556179	384.620260780125	625.496826672342	1061.505852794859	273.411798007733	578.853358876824	863.071943703522	199.782961541520	552.660601112927	1034.995174936292	151.516343197107	591.585154801492	926.093247236537	144.636974804986	626.845689133276	1108.170857849658	45.334959810271	620.839527106656	953.610279168897	39.107285016785	382.528343266656	1025.768482319479	35.148540710453	300.054854687409	1109.287307558765	96.455501175109	325.060402296769	1237.550338281492	45.148968528786	294.929813987514	1098.785891976048	1087.676834624701	98.418615772615	1291.311997409587	908.948364579214	121.836990204962	1043.975640201370	1108.133498725449	697.469499262744	1234.280498694168	932.948848266099	667.505729476747	
2	27.503642857143	883.281540831683	1001.595129574917	424.969880807229	1045.998628229147	1432.093084495398	227.663579021663	1146.272862275075	1377.579687031812	394.740875375271	1053.160154260175	1452.111294563168	563.376441081222	1021.582582758570	1499.650663939993	381.369247214035	1113.977972206898	955.034827079303	545.165424653947	1099.254260925963	965.175393686725	271.203041971129	1197.995626885499	779.637845690317	526.604055270674	1154.264600646925	659.229391490607	603.017788166730	1248.026050423738	618.621638006291	531.179456328616	1266.720780403475	509.790734020206	557.167141133437	1150.242945319686	753.473972234167	296.859390291915	1057.981931875306	636.855380290275	241.873565506388	1145.428048119100	559.593691963027	300.220973199906	1145.327847235192	490.445161987068	310.610346540252	1117.003885138198	417.716615543537	305.822980707620	1022.590030506879	303.876604543478	260.091549942266	1076.059469982217	193.666071221568	332.831040885726	1197.450211533554	430.144486928735	564.183484077093	1080.249630606214	381.122841664459	626.237553639497	1076.033862174244	269.724853782988	579.719508244142	881.945843511748	186.659270539802	555.257587319474	1055.667038483760	146.800783017538	592.579414553796	948.004803647713	134.766892332861	628.895433436038	1133.900403873232	44.553853671124	621.115283265927	947.792108103278	39.154775565847	382.488672604388	1019.989202766334	35.170315196333	300.032357377672	1103.552662685086	96.475869170891	324.925692177541	1231.768269987563	45.119867297392	294.869195753098	1104.807342869775	1089.444511415837	96.352991674866	1303.198325074662	918.075122036423	120.790491817518	1034.720769712660	1109.354408448458	696.271079847381	1208.630888664567	920.216974461476	670.990047198503	
3	27.517285714286	882.481069611280	1002.398164505336	423.030879870235	1047.779518232700	1432.502727454008	226.130072945933	1146.374650143855	1377.883704682431	394.152014506503	1051.951871478396	1452.557633249068	561.871711727406	1021.919216547883	1500.189109101992	379.683620156226	1112.739563910525	955.983478049092	544.622057666072	1100.064225142730	966.069118478490	270.131840821626	1197.890711420797	781.918733600144	525.514653580919	1155.647782273217	661.121662068513	602.493970200212	1248.745947790460	620.868836345150	529.917303931566	1269.211854575073	513.631445924407	556.261532770830	1147.515197020423	752.993983931533	296.808863969561	1054.089295237200	637.169282026023	241.099431137413	1140.500597608575	559.140595729996	299.554784879508	1139.607659561089	490.155357248120	309.902911977301	1111.323326576703	417.735239293365	305.123608899779	1016.636338277236	303.959798189271	259.808832908293	1070.287537959317	193.750482646081	332.480050786031	1203.343757071546	432.106138574740	563.919504822934	1089.615618052936	377.458213052670	627.079691801635	1090.652873823918	265.957600394595	580.663033971555	901.179364525999	173.344018586944	558.018260688400	1076.611369396240	142.083091983182	593.678397466431	970.287645554390	124.842254715414	631.078698655667	1159.920254751977	43.908249384061	621.462753095724	942.003846630386	39.196414736752	382.451560652632	1014.234180904550	35.188291830309	300.011770461408	1097.840218456633	96.495251661130	324.798533928745	1226.011767549213	45.090794574465	294.811347087149	1110.722719238896	1091.156587376967	94.343445258921	1314.910972356269	927.186690110315	119.760693393718	1025.528147474684	1110.534123723443	695.061725928398	1182.959278856176	907.894980725730	674.443466511484	
4	27.530928571429	881.710410386098	1003.115037875394	421.223910960113	1049.512494731305	1432.823145844360	224.718614439956	1146.506091451169	1378.096056216196	393.634379524042	1050.847174823687	1452.904269075619	560.493447786902	1022.281991565816	1500.640466489837	378.129377726287	1111.526038093205	956.758768506324	544.093211986926	1100.728417507958	966.830339216826	269.146501790553	1197.537644979749	783.761854151452	524.476822162598	1156.573872164208	662.713040032865	602.036892206012	1248.901655013917	622.623755532176	528.710776423447	1271.024710355733	517.122948311931	555.351469032732	1144.841626661186	752.482555419428	296.761249140900	1050.303160427943	637.440831489766	240.357960894639	1135.671136043617	558.667804346328	298.954431325792	1133.986576610065	489.850119656160	309.279505898217	1105.754254283271	417.722000811320	304.491139763890	1010.826951866094	304.012322246647	259.530661905191	1064.607238067560	193.807767698488	332.168157771210	1208.765981013589	433.854296785499	563.701081600640	1098.879959032721	373.556800094698	628.074483912505	1105.325552906086	262.145968544271	581.716550476684	920.974753113192	159.876292014135	560.973142687461	1097.903930422368	137.495477583167	594.931306902398	993.100948365402	114.979173612425	633.423380251407	1186.263913664628	43.628030565039	621.919259123445	936.288049969798	39.227307200644	382.418981677244	1008.541499166777	35.199001763419	299.994507265337	1092.186029009651	96.512273515148	324.685983382127	1220.320018592983	45.062274253695	294.759023919959	1116.400149916686	1092.759359717407	92.455863357248	1326.215669041406	936.230029382374	118.771791618052	1016.490536962225	1111.661458956466	693.850450818124	1157.438873661479	896.449475505794	677.801021662704	
5	27.544571428571	880.982664172267	1003.719076218723	419.596710599033	1051.178278013512	1433.026261901877	223.488757903468	1146.683487083904	1378.183283640342	393.224474976054	1049.897777250900	1453.115623212811	559.302078319105	1022.685686094290	1500.973874627856	376.770750975907	1110.354227845136	957.300063240747	543.595511749040	1101.209904912452	967.412911696305	268.282661058014	1196.820833630611	784.982911191719	523.529515964722	1156.818888816993	663.879690758337	601.690868427545	1248.252582669821	623.696760602291	527.607170444800	1271.873144582198	520.126407584028	554.446225852685	1142.254194427823	751.927846380189	296.726545274825	1046.664970570657	637.657157941065	239.665971090666	1130.967807777704	558.167744570873	298.455591963481	1128.492987135401	489.525243074784	308.779589573083	1100.329114045328	417.667392519484	303.956250856719	1005.206157453631	304.025239628074	259.260449188317	1059.041161792791	193.828651746029	331.911788245916	1213.509771657162	435.335910972151	563.552046884221	1107.972832874013	369.383600463694	629.253702241541	1120.042895810193	258.362088784189	582.892537055922	941.560598483379	146.336601877523	564.105119809583	1119.648566847288	133.203508930959	596.365906827474	1016.622617144896	105.320764630812	635.916414552391	1212.989185102058	43.964665291890	622.500080198028	930.660181622527	39.243683031515	382.391864414053	1002.923659066583	35.200117630317	299.981215899286	1086.600681290094	96.525264238914	324.593830299350	1214.706095427662	45.034330358891	294.714518999839	1121.743447459293	1094.215238372814	90.743583813696	1336.936619384177	945.186866871707	117.845402982185	1007.651478563546	1112.743180625601	692.645628384004	1132.189614751083	886.265956171867	681.004376023819	
6	27.558214285714	880.307808358063	1004.198289915971	418.177858792079	1052.764520701680	1433.098835138553	222.488258741721	1146.921382303730	1378.125352199938	392.952752371681	1049.146063900570	1453.170528320556	558.345454176774	1023.143872057444	1501.171477509898	375.659371963066	1109.239389795467	957.571623003264	543.147459829226	1101.502734467717	967.792944915343	267.563745889810	1195.649633688982	785.450012122850	522.711261936276	1156.197465928922	664.534546039614	601.498079216283	1246.621506424771	623.963111456507	526.658006792067	1271.549068491357	522.547982315441	553.559736027555	1139.781383548155	751.322066023228	296.717413084586	1043.199189331703	637.812457174324	239.037448144737	1126.398048144490	557.634983462260	298.088931847175	1123.134146435390	489.179174600422	308.434204756119	1095.057275939405	417.567223588433	303.542417598384	999.790218515338	303.994750501042	259.001535350243	1053.589838762369	193.807837682093	331.722687873290	1217.422902075071	436.539306175734	563.491179940983	1116.833228968443	364.955096822562	630.618643051215	1134.787876585401	254.718640507037	584.175792270296	963.112452143149	132.875307496930	567.334476381153	1141.908577179985	129.400303000937	597.977017353664	1040.966991861115	96.045960671367	638.491667128590	1240.102552264703	45.164148502045	623.192696362657	925.115771936341	39.243495997109	382.370158316908	997.375473690673	35.190822025195	299.971634849319	1081.077437431903	96.532447899907	324.526009047760	1209.164769060922	45.006593014947	294.679489865375	1126.691336690951	1095.504568057631	89.245261398865	1346.953460123639	954.058317141894	117.000241136343	999.018010381268	1113.804340735717	691.458425492760	1107.319930234456	877.626223411817	684.001136911529	
